<?xml version="1.0" standalone="no"?>
<!DOCTYPE svg PUBLIC "-//W3C//DTD SVG 20010904//EN"
 "http://www.w3.org/TR/2001/REC-SVG-20010904/DTD/svg10.dtd">
<svg version="1.0" xmlns="http://www.w3.org/2000/svg"
 width="542.000000pt" height="542.000000pt" viewBox="0 0 542.000000 542.000000"
 preserveAspectRatio="xMidYMid meet">

<g transform="translate(0.000000,542.000000) scale(0.100000,-0.100000)"
fill="#000000" stroke="none">
<path d="M2534 5403 c-28 -4 -34 -11 -52 -56 -34 -84 -152 -351 -160 -359 -4
-4 -50 -16 -102 -27 -52 -11 -147 -37 -211 -57 l-116 -37 -186 137 -186 137
-98 -54 c-206 -114 -228 -130 -230 -168 -2 -19 7 -122 20 -229 l22 -194 -160
-161 -161 -161 -223 25 -223 25 -19 -25 c-24 -31 -139 -233 -161 -280 l-16
-37 134 -181 135 -182 -22 -67 c-12 -37 -38 -134 -59 -217 l-37 -150 -205 -89
-206 -90 -6 -35 c-9 -56 -7 -317 3 -343 7 -18 53 -42 213 -112 l204 -88 18
-87 c10 -47 34 -138 53 -201 20 -63 37 -122 40 -130 2 -8 -56 -97 -131 -198
l-136 -184 31 -60 c47 -92 159 -278 168 -278 5 0 108 11 231 25 l222 26 41
-48 c48 -57 151 -160 223 -224 l50 -45 -22 -194 c-34 -287 -39 -258 58 -317
120 -73 233 -133 249 -133 8 0 93 59 189 130 96 72 179 130 185 130 6 0 55
-14 110 -31 54 -17 146 -42 204 -55 57 -13 108 -27 112 -31 4 -4 48 -98 96
-208 l88 -200 95 -8 c52 -5 141 -6 197 -2 l102 7 66 151 c37 84 78 178 92 210
18 38 33 59 47 62 123 26 264 62 320 81 38 13 75 24 81 24 11 0 283 -192 347
-246 l28 -22 107 58 c60 31 133 74 163 94 30 19 58 37 63 39 4 1 -3 104 -17
229 l-26 227 161 160 161 160 220 -24 c121 -14 221 -25 224 -25 14 0 194 312
194 336 0 6 -60 91 -133 190 l-134 179 24 69 c19 57 71 260 88 342 5 22 3 21
283 144 l142 62 -2 196 -3 195 -205 90 c-113 50 -206 91 -208 93 -2 1 -15 53
-28 115 -14 63 -39 156 -56 208 -16 51 -28 101 -25 110 2 9 61 93 130 187 70
94 127 177 127 184 0 15 -37 83 -124 228 -51 86 -65 102 -86 102 -14 0 -117
-11 -230 -24 l-205 -24 -24 26 c-55 63 -150 158 -219 222 l-74 68 12 99 c6 54
15 134 20 178 5 44 12 103 15 130 l6 50 -83 52 c-46 28 -122 72 -169 97 l-86
46 -64 -48 c-35 -26 -119 -87 -185 -135 l-122 -88 -133 40 c-74 22 -170 48
-214 57 -44 8 -81 17 -83 19 -2 1 -42 94 -91 206 l-88 204 -39 7 c-40 7 -275
8 -330 1z m259 -113 c20 0 37 -4 37 -10 0 -5 13 -38 29 -72 15 -35 52 -118 81
-186 57 -132 70 -152 102 -152 42 0 257 -53 370 -91 l116 -40 44 31 c23 17
104 75 178 130 74 55 140 100 145 100 6 0 53 -24 105 -54 l95 -55 -3 -48 c-2
-26 -12 -128 -23 -227 l-20 -179 38 -30 c48 -38 280 -270 319 -318 l29 -37
223 25 c258 29 221 41 297 -95 27 -48 43 -87 39 -95 -5 -6 -64 -88 -132 -181
l-124 -169 41 -131 c37 -116 84 -308 93 -375 3 -21 30 -36 211 -115 l208 -91
-3 -120 -3 -120 -195 -85 c-107 -47 -200 -88 -206 -92 -6 -4 -17 -41 -23 -82
-17 -103 -64 -278 -99 -369 l-29 -75 129 -173 c72 -96 132 -179 135 -186 3 -9
-88 -181 -112 -211 -2 -2 -103 9 -226 23 l-224 26 -34 -43 c-58 -71 -212 -226
-284 -286 l-69 -57 6 -50 c3 -27 15 -128 26 -224 11 -96 19 -175 18 -176 -49
-30 -142 -85 -169 -100 l-37 -18 -73 54 c-41 29 -121 89 -178 131 -57 43 -107
78 -111 78 -4 0 -63 -18 -131 -41 -122 -40 -326 -89 -373 -89 -20 0 -28 -11
-54 -73 -16 -39 -47 -110 -67 -157 -20 -47 -47 -109 -59 -137 l-21 -53 -121 0
-121 0 -29 67 c-16 37 -57 130 -91 207 l-61 140 -79 13 c-108 18 -177 36 -324
85 l-127 41 -78 -59 c-44 -32 -123 -91 -177 -131 -54 -40 -101 -73 -105 -73
-4 0 -50 24 -102 54 -82 47 -95 58 -98 83 -1 15 9 118 22 228 22 183 23 201 8
213 -80 62 -184 159 -244 226 -40 44 -86 95 -103 113 l-30 33 -180 -21 c-99
-11 -200 -21 -224 -22 l-43 -2 -54 93 c-30 51 -54 99 -54 106 0 7 28 51 63 97
34 46 92 125 129 176 l67 91 -44 136 c-25 74 -56 193 -71 263 -14 70 -26 129
-27 129 -3 3 -196 88 -303 134 l-102 44 -6 44 c-8 56 -8 116 0 164 l6 36 203
89 203 88 17 85 c25 127 51 227 90 342 19 56 35 103 35 104 0 1 -24 33 -53 70
-104 136 -207 282 -207 294 0 20 101 191 116 197 12 4 354 -30 415 -43 23 -4
37 8 118 99 50 58 139 147 196 198 82 73 104 97 100 113 -6 27 -45 380 -45
406 0 13 27 35 93 75 51 30 99 55 106 55 7 0 88 -55 180 -123 91 -68 171 -126
178 -130 6 -4 64 10 127 32 96 33 206 61 384 97 25 5 33 21 143 274 58 135 59
135 96 142 21 3 61 4 88 2 28 -2 67 -4 88 -4z"/>
<path d="M2460 4835 c-144 -17 -215 -31 -352 -71 -990 -285 -1639 -1242 -1537
-2270 47 -477 268 -950 599 -1284 183 -184 320 -287 530 -398 249 -132 484
-204 768 -237 497 -58 1005 66 1432 350 722 481 1082 1364 904 2218 -148 708
-636 1287 -1315 1557 -320 128 -685 176 -1029 135z m630 -43 c335 -70 615
-192 861 -373 473 -348 770 -845 855 -1428 20 -145 15 -509 -10 -641 -25 -127
-62 -269 -100 -372 -68 -188 -215 -449 -340 -604 -65 -82 -286 -295 -368 -357
-292 -219 -628 -359 -989 -411 -159 -24 -460 -21 -619 4 -789 128 -1434 672
-1684 1421 -78 236 -106 410 -106 673 0 348 64 630 211 933 303 622 893 1054
1594 1167 137 22 567 15 695 -12z"/>
<path d="M2504 4685 c-6 -24 -4 -45 11 -91 6 -20 2 -22 -47 -29 -232 -30 -413
-168 -474 -362 -39 -125 -24 -323 32 -419 80 -138 276 -239 482 -250 81 -5 89
-3 115 19 l29 24 -52 6 c-29 4 -63 13 -76 22 -13 8 -43 15 -66 15 -57 0 -168
24 -210 46 -59 30 -118 85 -148 137 -57 99 -76 263 -45 382 47 180 201 310
422 354 45 9 85 20 88 23 3 3 -6 13 -20 22 -19 12 -25 25 -25 51 0 39 4 41 40
20 14 -8 51 -14 83 -15 52 0 62 -4 89 -30 21 -22 56 -38 120 -58 89 -27 100
-34 155 -101 33 -41 107 -89 186 -121 63 -26 96 -62 77 -85 -28 -34 -97 -48
-203 -42 -87 4 -345 51 -400 73 -21 8 -22 27 -2 44 13 11 22 10 49 -3 19 -9
51 -18 72 -21 35 -6 34 -4 -15 14 -29 11 -59 25 -67 31 -18 15 -49 3 -74 -28
-15 -19 -17 -29 -9 -39 12 -14 177 -55 323 -80 208 -35 365 3 388 94 2 8 -29
23 -84 42 -108 36 -180 84 -233 151 -41 52 -80 79 -113 79 -22 0 -47 25 -56
58 -9 28 -24 35 -116 57 -41 10 -81 22 -87 28 -14 10 -17 4 -14 -25 2 -11 -4
-18 -14 -18 -25 0 -85 28 -85 39 0 22 -20 10 -26 -14z"/>
<path d="M2580 4611 c0 -4 7 -16 15 -27 12 -15 16 -16 24 -5 5 9 17 11 32 6
18 -6 21 -4 13 5 -13 13 -84 31 -84 21z"/>
<path d="M2755 4470 c17 -5 51 -12 78 -15 26 -4 47 -11 47 -17 0 -10 -29 -7
-64 7 -13 6 -17 5 -13 -2 8 -13 101 -37 119 -31 8 3 3 14 -14 31 -21 21 -37
27 -71 27 -25 0 -60 2 -78 5 l-34 5 30 -10z"/>
<path d="M2355 4416 c-48 -29 -105 -102 -142 -182 -22 -49 -28 -78 -33 -168
-6 -131 -18 -144 -57 -59 -23 49 -27 54 -31 34 -5 -34 67 -175 92 -179 10 -2
23 3 28 12 5 9 13 16 17 16 4 0 29 -27 55 -59 48 -60 95 -91 136 -91 19 0 16
7 -28 54 -75 83 -105 140 -99 188 3 22 1 53 -5 69 -10 29 0 132 17 184 3 11
-1 7 -11 -10 -9 -16 -22 -65 -28 -108 -6 -43 -16 -78 -21 -79 -6 0 -17 11 -25
25 -12 21 -12 35 -3 79 23 111 53 170 119 236 34 34 61 62 61 62 -1 0 -20 -11
-42 -24z"/>
<path d="M3255 4136 c-40 -18 -50 -38 -80 -150 -33 -123 -33 -126 9 -126 33 0
35 2 53 63 18 62 19 62 57 64 l38 1 -6 -36 c-3 -21 -8 -49 -12 -64 -6 -27 -5
-28 33 -28 l39 0 29 119 c15 65 25 126 22 135 -14 35 -122 48 -182 22z m100
-37 c4 -6 4 -26 1 -45 -7 -32 -9 -34 -46 -34 -35 0 -40 3 -40 23 0 12 7 33 16
45 16 23 58 30 69 11z"/>
<path d="M2532 4115 c-34 -29 -72 -127 -72 -186 0 -51 27 -69 102 -69 45 0 58
3 58 15 0 8 -6 16 -12 16 -7 1 -17 2 -23 4 -5 1 -18 3 -27 3 -23 2 -23 34 -2
116 20 80 36 96 91 96 32 0 43 4 43 15 0 12 -14 15 -64 15 -54 0 -69 -4 -94
-25z"/>
<path d="M2699 4000 l-35 -141 95 3 c77 2 96 6 99 18 2 12 -6 15 -38 12 -64
-6 -71 0 -57 50 12 42 14 43 62 48 67 7 73 30 8 30 l-49 0 10 45 11 45 57 0
c45 0 58 3 58 15 0 12 -17 15 -93 15 l-92 0 -36 -140z"/>
<path d="M2969 4111 c-21 -22 -29 -39 -29 -65 0 -39 20 -56 64 -56 31 0 39
-13 31 -50 -7 -32 -53 -54 -102 -48 -21 2 -29 -2 -31 -16 -4 -17 2 -18 77 -15
71 4 84 7 107 30 30 30 44 101 23 115 -7 4 -29 10 -49 14 -27 4 -36 11 -38 28
-6 39 24 62 80 62 36 0 48 4 48 15 0 12 -15 15 -76 15 -70 0 -78 -2 -105 -29z"/>
<path d="M2906 3823 c-9 -9 -7 -33 3 -33 12 0 22 28 12 34 -5 3 -11 3 -15 -1z"/>
<path d="M2966 3823 c-12 -12 -6 -33 9 -33 8 0 15 6 15 14 0 17 -14 28 -24 19z"/>
<path d="M3067 3823 c-10 -9 -9 -33 1 -33 4 0 8 9 8 20 0 23 0 22 -9 13z"/>
<path d="M3232 3810 c0 -14 2 -19 5 -12 2 6 2 18 0 25 -3 6 -5 1 -5 -13z"/>
<path d="M3347 3824 c-18 -18 -6 -34 23 -32 17 1 30 8 30 15 0 16 -16 17 -26
1 -5 -8 -9 -6 -14 6 -3 9 -9 14 -13 10z"/>
<path d="M2480 3811 c0 -5 7 -11 15 -15 9 -3 15 0 15 9 0 8 -7 15 -15 15 -8 0
-15 -4 -15 -9z"/>
<path d="M2526 3805 c4 -8 10 -15 15 -15 4 0 6 7 3 15 -4 8 -10 15 -15 15 -4
0 -6 -7 -3 -15z"/>
<path d="M2561 3804 c0 -11 3 -14 6 -6 3 7 2 16 -1 19 -3 4 -6 -2 -5 -13z"/>
<path d="M2591 3804 c0 -11 3 -14 6 -6 3 7 2 16 -1 19 -3 4 -6 -2 -5 -13z"/>
<path d="M2640 3803 c0 -7 7 -13 15 -13 8 0 15 6 15 13 0 8 -7 14 -15 14 -8 0
-15 -6 -15 -14z"/>
<path d="M2711 3804 c0 -11 3 -14 6 -6 3 7 2 16 -1 19 -3 4 -6 -2 -5 -13z"/>
<path d="M2731 3804 c0 -11 3 -14 6 -6 3 7 2 16 -1 19 -3 4 -6 -2 -5 -13z"/>
<path d="M2790 3804 c0 -8 5 -12 10 -9 6 4 8 11 5 16 -9 14 -15 11 -15 -7z"/>
<path d="M2821 3804 c0 -11 3 -14 6 -6 3 7 2 16 -1 19 -3 4 -6 -2 -5 -13z"/>
<path d="M2860 3807 c0 -8 7 -14 15 -14 8 0 15 6 15 14 0 7 -7 13 -15 13 -8 0
-15 -6 -15 -13z"/>
<path d="M2941 3804 c0 -11 3 -14 6 -6 3 7 2 16 -1 19 -3 4 -6 -2 -5 -13z"/>
<path d="M3000 3805 c0 -8 7 -15 16 -15 14 0 14 3 4 15 -7 8 -14 15 -16 15 -2
0 -4 -7 -4 -15z"/>
<path d="M3041 3804 c0 -11 3 -14 6 -6 3 7 2 16 -1 19 -3 4 -6 -2 -5 -13z"/>
<path d="M3100 3806 c0 -9 5 -16 10 -16 6 0 10 4 10 9 0 6 -4 13 -10 16 -5 3
-10 -1 -10 -9z"/>
<path d="M3150 3805 c0 -8 5 -15 10 -15 6 0 10 7 10 15 0 8 -4 15 -10 15 -5 0
-10 -7 -10 -15z"/>
<path d="M3180 3811 c0 -5 5 -13 10 -16 6 -3 10 -2 10 4 0 5 -4 13 -10 16 -5
3 -10 2 -10 -4z"/>
<path d="M3261 3804 c0 -11 3 -14 6 -6 3 7 2 16 -1 19 -3 4 -6 -2 -5 -13z"/>
<path d="M3281 3804 c0 -11 3 -14 6 -6 3 7 2 16 -1 19 -3 4 -6 -2 -5 -13z"/>
<path d="M3301 3808 c-1 -10 6 -18 14 -18 8 0 15 8 15 18 0 13 -2 14 -9 3 -7
-11 -9 -11 -14 0 -4 10 -6 9 -6 -3z"/>
<path d="M3410 3806 c0 -9 7 -16 16 -16 9 0 14 5 12 12 -6 18 -28 21 -28 4z"/>
<path d="M1518 3373 c7 -3 16 -2 19 1 4 3 -2 6 -13 5 -11 0 -14 -3 -6 -6z"/>
<path d="M1305 3352 c-54 -18 -51 -12 -43 -99 2 -18 7 -35 11 -39 11 -11 8
-26 -3 -19 -5 3 -10 1 -10 -4 0 -6 6 -11 12 -11 7 0 -4 -9 -25 -20 -44 -24
-48 -24 -41 -5 4 10 0 15 -11 15 -11 0 -15 -5 -11 -15 3 -8 -2 -21 -10 -30
-14 -14 -22 -10 -75 37 l-60 52 -49 -49 c-28 -27 -50 -54 -50 -60 0 -5 22 -33
50 -60 46 -46 62 -75 42 -75 -5 0 -19 -22 -32 -50 -13 -27 -30 -50 -38 -50 -8
0 -41 7 -73 15 -33 9 -64 13 -69 10 -12 -8 -42 -115 -36 -130 2 -7 20 -16 38
-20 18 -4 50 -14 71 -23 34 -13 38 -18 35 -46 -2 -19 -8 -30 -16 -28 -8 1 -11
-2 -7 -8 3 -6 11 -8 16 -5 5 4 9 -11 9 -32 l0 -39 -69 -18 c-38 -10 -72 -24
-75 -31 -6 -16 28 -128 41 -132 5 -2 36 3 68 12 47 12 61 12 67 2 5 -8 8 -7 8
6 0 10 5 15 10 12 6 -3 10 -15 10 -25 0 -10 7 -25 15 -34 8 -8 15 -18 15 -22
0 -4 8 -16 17 -26 16 -18 14 -21 -35 -71 -29 -29 -52 -57 -52 -63 0 -15 84
-94 100 -94 8 0 37 23 65 50 37 37 56 49 69 44 11 -4 16 -14 13 -26 -5 -16 -3
-17 9 -7 11 9 18 8 34 -6 11 -10 20 -15 20 -11 0 4 9 2 19 -4 18 -9 18 -13 5
-62 -7 -29 -14 -65 -14 -80 0 -25 5 -28 63 -41 34 -8 67 -12 72 -10 6 2 20 35
30 73 l19 70 76 0 77 0 13 -55 c21 -86 27 -91 91 -77 86 20 85 19 66 103 -8
41 -15 74 -14 74 1 1 21 13 45 28 23 15 47 25 53 22 5 -4 8 -1 7 6 -7 29 26
16 75 -30 30 -28 58 -51 63 -51 15 0 94 83 94 99 0 8 -16 31 -35 51 -26 26
-33 41 -29 58 4 12 10 22 15 22 5 0 6 7 3 15 -4 8 -10 15 -15 15 -4 0 -6 -6
-3 -13 3 -8 -2 -14 -10 -14 -12 0 -9 11 12 51 15 28 28 53 29 54 1 2 36 -4 78
-13 42 -10 78 -15 81 -12 11 11 36 117 31 131 -3 8 -22 18 -42 22 -19 3 -38
11 -42 17 -4 6 2 8 15 5 12 -4 24 -2 27 3 3 4 -6 11 -21 15 -19 5 -29 2 -36
-9 -12 -22 -40 -10 -33 13 3 10 1 21 -5 25 -16 10 -11 35 8 35 16 1 16 1 0 14
-10 7 -18 21 -18 30 0 9 8 16 18 16 13 0 14 2 3 9 -10 6 3 13 43 22 90 20 93
25 71 98 -10 34 -22 64 -26 67 -4 2 -40 -5 -79 -15 -72 -20 -72 -20 -67 -1 3
11 1 18 -4 14 -5 -3 -14 -2 -21 2 -7 5 -5 11 7 21 15 10 16 16 7 25 -9 9 -12
8 -12 -7 -1 -17 -6 -15 -31 14 l-31 33 51 52 c28 28 51 58 51 67 0 16 -80 99
-95 99 -6 0 -35 -23 -65 -51 -42 -40 -57 -49 -70 -41 -8 6 -14 15 -13 21 2 6
-4 8 -12 5 -11 -4 -15 1 -16 17 -1 17 -3 19 -6 7 -2 -10 -9 -18 -14 -18 -5 0
-9 8 -9 18 0 13 -2 14 -9 4 -6 -10 -10 -10 -21 3 -11 13 -10 27 5 80 9 35 14
68 11 73 -7 11 -85 32 -120 32 -22 0 -27 -7 -46 -70 l-21 -70 -59 0 c-32 0
-65 -3 -73 -6 -11 -4 -19 9 -31 53 -28 99 -36 104 -121 75z m180 -212 c3 -5 1
-10 -4 -10 -6 0 -11 5 -11 10 0 6 2 10 4 10 3 0 8 -4 11 -10z m186 1 c-8 -5
-12 -18 -8 -30 3 -12 1 -19 -4 -15 -20 12 -8 54 15 54 6 0 5 -4 -3 -9z m-234
-33 c-3 -7 -5 -2 -5 12 0 14 2 19 5 13 2 -7 2 -19 0 -25z m173 12 c0 -5 -2
-10 -4 -10 -3 0 -8 5 -11 10 -3 6 -1 10 4 10 6 0 11 -4 11 -10z m-235 -28 c-3
-3 -11 0 -18 7 -9 10 -8 11 6 5 10 -3 15 -9 12 -12z m342 -4 c-3 -8 -6 -5 -6
6 -1 11 2 17 5 13 3 -3 4 -12 1 -19z m-401 -10 c4 -5 -4 -8 -17 -6 -12 1 -24
8 -26 15 -5 14 34 6 43 -9z m487 -13 c-3 -9 -8 -14 -10 -11 -3 3 -2 9 2 15 9
16 15 13 8 -4z m31 -13 c3 -5 -1 -9 -9 -9 -8 0 -12 4 -9 9 3 4 7 8 9 8 2 0 6
-4 9 -8z m-121 -45 c243 -120 299 -421 117 -620 -159 -174 -433 -181 -599 -15
-176 176 -156 448 44 600 75 58 150 79 266 75 88 -2 103 -6 172 -40z m-515
-22 c-3 -3 -9 2 -12 12 -6 14 -5 15 5 6 7 -7 10 -15 7 -18z m712 11 c0 -2 -8
-10 -17 -17 -16 -13 -17 -12 -4 4 13 16 21 21 21 13z m-770 -82 c0 -2 -9 0
-20 6 -11 6 -20 13 -20 16 0 2 9 0 20 -6 11 -6 20 -13 20 -16z m820 12 c0 -2
-7 -7 -16 -10 -8 -3 -12 -2 -9 4 6 10 25 14 25 6z m-840 -26 c11 -7 11 -10 2
-10 -7 0 -10 -4 -7 -10 3 -5 2 -10 -4 -10 -5 0 -13 5 -16 10 -3 6 0 10 7 10 9
0 9 3 -2 10 -8 5 -10 10 -5 10 6 0 17 -5 25 -10z m855 -20 c-3 -5 -12 -10 -18
-10 -7 0 -6 4 3 10 19 12 23 12 15 0z m20 -50 c-3 -5 -12 -10 -18 -10 -7 0 -6
4 3 10 19 12 23 12 15 0z m6 -37 c-12 -20 -14 -14 -5 12 4 9 9 14 11 11 3 -2
0 -13 -6 -23z m-931 -3 c-8 -5 -19 -10 -25 -10 -5 0 -3 5 5 10 8 5 20 10 25
10 6 0 3 -5 -5 -10z m960 -34 c0 -2 -7 -7 -16 -10 -8 -3 -12 -2 -9 4 6 10 25
14 25 6z m-973 -72 c-3 -3 -12 -4 -19 -1 -8 3 -5 6 6 6 11 1 17 -2 13 -5z
m976 -11 c-7 -2 -19 -2 -25 0 -7 3 -2 5 12 5 14 0 19 -2 13 -5z m-973 -6 c0
-2 -10 -12 -21 -23 -22 -19 -22 -19 -8 4 12 19 29 30 29 19z m990 -31 c0 -2
-7 -7 -16 -10 -8 -3 -12 -2 -9 4 6 10 25 14 25 6z m-990 -26 c0 -5 -15 -10
-32 -9 -31 1 -32 1 -8 9 35 11 40 11 40 0z m375 -443 c1 -39 -2 -47 -17 -47
-15 0 -18 8 -18 51 0 42 3 50 17 47 13 -2 18 -14 18 -51z m101 42 c3 -6 0 -15
-7 -20 -11 -7 -11 -9 -1 -9 9 0 12 -10 10 -27 -3 -24 -8 -28 -39 -31 -27 -2
-38 1 -43 14 -5 14 -2 16 24 11 36 -8 41 8 5 17 -24 6 -34 34 -18 49 11 11 61
8 69 -4z m112 -7 c3 -9 -5 -12 -24 -10 -21 2 -29 -2 -32 -16 -5 -22 18 -48 25
-28 7 19 35 15 31 -5 -4 -24 -60 -29 -82 -8 -36 36 -6 88 47 83 17 -2 32 -9
35 -16z"/>
<path d="M1429 2994 c-204 -62 -307 -298 -214 -487 35 -70 97 -130 173 -165
48 -23 71 -27 142 -27 73 0 93 4 142 28 178 87 252 302 164 476 -24 47 -102
127 -146 151 -72 39 -182 49 -261 24z m41 -73 c0 -17 -4 -33 -10 -36 -6 -4
-10 8 -10 29 0 20 5 36 10 36 6 0 10 -13 10 -29z m70 0 c0 -17 -4 -33 -10 -36
-10 -6 -12 0 -12 35 0 28 1 30 12 30 6 0 10 -13 10 -29z m68 -12 c-1 -13 -7
-23 -13 -22 -13 3 -18 30 -11 50 10 24 29 1 24 -28z m34 -56 c16 -14 18 -34
18 -191 0 -220 5 -212 -130 -212 -141 0 -135 -9 -137 205 -2 222 -6 215 134
215 76 0 100 -4 115 -17z m-262 -53 c0 -5 -16 -10 -35 -10 -19 0 -35 5 -35 10
0 6 16 10 35 10 19 0 35 -4 35 -10z m360 0 c0 -5 -13 -10 -30 -10 -16 0 -30 5
-30 10 0 6 14 10 30 10 17 0 30 -4 30 -10z m-360 -70 c0 -5 -16 -10 -35 -10
-19 0 -35 5 -35 10 0 6 16 10 35 10 19 0 35 -4 35 -10z m360 0 c0 -5 -13 -10
-30 -10 -16 0 -30 5 -30 10 0 6 14 10 30 10 17 0 30 -4 30 -10z m-360 -70 c0
-5 -16 -10 -35 -10 -19 0 -35 5 -35 10 0 6 16 10 35 10 19 0 35 -4 35 -10z
m360 0 c0 -5 -13 -10 -30 -10 -16 0 -30 5 -30 10 0 6 14 10 30 10 17 0 30 -4
30 -10z m-360 -70 c0 -5 -16 -10 -35 -10 -19 0 -35 5 -35 10 0 6 16 10 35 10
19 0 35 -4 35 -10z m360 0 c0 -5 -13 -10 -30 -10 -16 0 -30 5 -30 10 0 6 14
10 30 10 17 0 30 -4 30 -10z m-360 -70 c0 -5 -16 -10 -35 -10 -19 0 -35 5 -35
10 0 6 16 10 35 10 19 0 35 -4 35 -10z m360 0 c0 -5 -13 -10 -30 -10 -16 0
-30 5 -30 10 0 6 14 10 30 10 17 0 30 -4 30 -10z m-270 -121 c0 -16 -4 -29
-10 -29 -5 0 -10 16 -10 36 0 21 4 33 10 29 6 -3 10 -19 10 -36z m70 0 c0 -19
-4 -29 -12 -27 -13 5 -19 33 -11 54 8 23 23 5 23 -27z m70 0 c0 -20 -4 -29
-12 -27 -15 5 -22 33 -14 54 9 24 26 6 26 -27z"/>
<path d="M1452 2700 c0 -14 2 -19 5 -12 2 6 2 18 0 25 -3 6 -5 1 -5 -13z"/>
<path d="M1592 2700 c0 -14 2 -19 5 -12 2 6 2 18 0 25 -3 6 -5 1 -5 -13z"/>
<path d="M1612 2700 c0 -14 2 -19 5 -12 2 6 2 18 0 25 -3 6 -5 1 -5 -13z"/>
<path d="M1622 2620 c0 -14 2 -19 5 -12 2 6 2 18 0 25 -3 6 -5 1 -5 -13z"/>
<path d="M1421 2614 c0 -11 3 -14 6 -6 3 7 2 16 -1 19 -3 4 -6 -2 -5 -13z"/>
<path d="M1430 2490 c0 -5 5 -10 11 -10 5 0 7 5 4 10 -3 6 -8 10 -11 10 -2 0
-4 -4 -4 -10z"/>
<path d="M1615 2490 c-3 -5 -1 -10 4 -10 6 0 11 5 11 10 0 6 -2 10 -4 10 -3 0
-8 -4 -11 -10z"/>
<path d="M1490 3340 c0 -5 5 -10 10 -10 6 0 10 5 10 10 0 6 -4 10 -10 10 -5 0
-10 -4 -10 -10z"/>
<path d="M1585 3300 c3 -5 8 -10 11 -10 2 0 4 5 4 10 0 6 -5 10 -11 10 -5 0
-7 -4 -4 -10z"/>
<path d="M1828 3303 c7 -3 16 -2 19 1 4 3 -2 6 -13 5 -11 0 -14 -3 -6 -6z"/>
<path d="M1170 3285 c-11 -13 -10 -14 4 -9 9 3 16 10 16 15 0 13 -6 11 -20 -6z"/>
<path d="M1870 3256 c0 -20 5 -36 10 -36 6 0 10 13 10 29 0 17 -4 33 -10 36
-6 4 -10 -8 -10 -29z"/>
<path d="M1800 3256 c0 -14 4 -27 8 -30 5 -3 6 8 4 25 -5 35 -12 38 -12 5z"/>
<path d="M1125 3253 c4 -10 10 -28 12 -40 3 -13 10 -23 15 -23 6 0 7 7 4 16
-3 9 -9 27 -12 40 -3 13 -11 24 -16 24 -6 0 -7 -8 -3 -17z"/>
<path d="M1178 3253 c7 -3 16 -2 19 1 4 3 -2 6 -13 5 -11 0 -14 -3 -6 -6z"/>
<path d="M1941 3234 c0 -11 3 -14 6 -6 3 7 2 16 -1 19 -3 4 -6 -2 -5 -13z"/>
<path d="M1830 3230 c0 -5 5 -10 10 -10 6 0 10 5 10 10 0 6 -4 10 -10 10 -5 0
-10 -4 -10 -10z"/>
<path d="M1770 3220 c0 -5 5 -10 11 -10 5 0 7 5 4 10 -3 6 -8 10 -11 10 -2 0
-4 -4 -4 -10z"/>
<path d="M1178 3213 c7 -3 16 -2 19 1 4 3 -2 6 -13 5 -11 0 -14 -3 -6 -6z"/>
<path d="M1835 3180 c-3 -5 -1 -10 4 -10 6 0 11 5 11 10 0 6 -2 10 -4 10 -3 0
-8 -4 -11 -10z"/>
<path d="M1145 3170 c-3 -5 -1 -10 4 -10 6 0 11 5 11 10 0 6 -2 10 -4 10 -3 0
-8 -4 -11 -10z"/>
<path d="M1867 3156 c-4 -10 -5 -21 -2 -24 9 -9 17 6 13 25 -3 17 -4 17 -11
-1z"/>
<path d="M1155 3140 c-3 -5 -1 -10 4 -10 6 0 11 5 11 10 0 6 -2 10 -4 10 -3 0
-8 -4 -11 -10z"/>
<path d="M2110 3059 c0 -5 5 -7 10 -4 6 3 10 8 10 11 0 2 -4 4 -10 4 -5 0 -10
-5 -10 -11z"/>
<path d="M2081 3051 c-10 -6 -10 -10 -1 -16 13 -8 24 -1 19 14 -3 6 -10 7 -18
2z"/>
<path d="M3260 3049 c0 -5 5 -7 10 -4 6 3 10 8 10 11 0 2 -4 4 -10 4 -5 0 -10
-5 -10 -11z"/>
<path d="M2150 3030 c0 -5 5 -10 11 -10 5 0 7 5 4 10 -3 6 -8 10 -11 10 -2 0
-4 -4 -4 -10z"/>
<path d="M2030 3005 c-18 -19 -20 -25 -8 -25 15 0 48 30 48 43 0 14 -17 6 -40
-18z"/>
<path d="M2120 3021 c0 -5 5 -13 10 -16 6 -3 10 -2 10 4 0 5 -4 13 -10 16 -5
3 -10 2 -10 -4z"/>
<path d="M2455 2970 c0 -47 3 -60 15 -60 12 0 15 13 15 60 0 47 -3 60 -15 60
-12 0 -15 -13 -15 -60z"/>
<path d="M2515 2970 c0 -54 2 -60 20 -59 11 0 14 3 8 6 -8 3 -13 22 -13 46 0
46 9 43 39 -13 28 -53 39 -48 43 19 2 50 0 61 -12 61 -12 0 -15 -10 -13 -42
l3 -43 -22 43 c-33 63 -53 56 -53 -18z"/>
<path d="M2652 3014 c-42 -29 -18 -104 34 -104 26 0 40 11 46 38 5 17 2 22
-12 22 -13 0 -17 -6 -13 -19 6 -25 -11 -35 -37 -21 -16 8 -20 19 -18 42 4 42
34 60 53 34 16 -22 31 -16 22 9 -8 19 -46 19 -75 -1z"/>
<path d="M2755 2970 l0 -60 43 0 c31 0 42 4 42 15 0 8 -4 15 -10 15 -5 0 -10
-4 -10 -10 0 -5 -9 -10 -20 -10 -15 0 -20 7 -20 25 0 26 24 35 33 13 3 -7 6
-3 6 9 1 16 -3 20 -19 16 -15 -4 -20 0 -20 16 0 23 35 30 43 9 3 -8 6 -6 6 5
1 13 -7 17 -36 17 l-38 0 0 -60z"/>
<path d="M2855 2970 c0 -38 4 -60 11 -60 8 0 10 15 6 45 -2 25 -2 45 1 45 3 0
17 -20 31 -45 15 -25 31 -45 36 -45 4 0 10 27 12 60 2 49 0 60 -12 60 -12 0
-15 -10 -13 -42 l3 -43 -22 43 c-33 63 -53 56 -53 -18z"/>
<path d="M2975 2970 c0 -47 3 -60 15 -60 12 0 15 13 15 60 0 47 -3 60 -15 60
-12 0 -15 -13 -15 -60z"/>
<path d="M3035 2970 l0 -60 43 0 c31 0 42 4 42 15 0 8 -4 15 -10 15 -5 0 -10
-4 -10 -10 0 -5 -9 -10 -20 -10 -15 0 -20 7 -20 25 0 26 24 35 33 13 3 -7 6
-3 6 9 1 16 -3 20 -19 16 -15 -4 -20 0 -20 16 0 23 35 30 43 9 3 -8 6 -6 6 5
1 13 -7 17 -36 17 l-38 0 0 -60z"/>
<path d="M3135 2970 c0 -48 3 -60 16 -60 12 0 14 7 11 30 -2 17 0 30 6 30 5 0
15 -13 22 -30 11 -26 18 -30 49 -30 l36 0 0 60 c0 47 -3 60 -15 60 -12 0 -14
-11 -12 -55 3 -45 1 -55 -12 -55 -22 0 -43 47 -28 62 19 19 -5 48 -41 48 l-32
0 0 -60z m54 41 c16 -10 6 -31 -15 -31 -8 0 -14 9 -14 20 0 22 7 25 29 11z"/>
<path d="M3330 3004 c-6 -14 -10 -31 -10 -37 0 -7 -7 -23 -16 -35 -14 -20 -14
-22 4 -22 13 0 19 6 18 17 -1 12 7 19 23 21 20 3 23 0 18 -17 -4 -16 0 -21 15
-21 15 0 18 4 13 18 -4 9 -14 36 -22 60 -17 48 -29 53 -43 16z m30 -30 c0 -8
-7 -14 -15 -14 -17 0 -18 2 -9 24 7 18 24 12 24 -10z"/>
<path d="M3465 2970 l0 -60 43 0 c31 0 42 4 42 15 0 8 -4 15 -10 15 -5 0 -10
-4 -10 -10 0 -5 -9 -10 -20 -10 -15 0 -20 7 -20 25 0 26 24 35 33 13 3 -7 6
-3 6 9 1 16 -3 20 -19 16 -15 -4 -20 0 -20 16 0 23 35 30 43 9 3 -8 6 -6 6 5
1 13 -7 17 -36 17 l-38 0 0 -60z"/>
<path d="M3565 2970 c0 -53 2 -60 20 -60 15 0 16 3 7 12 -7 7 -12 28 -12 47 0
40 10 35 39 -19 28 -53 39 -48 43 19 2 50 0 61 -12 61 -12 0 -15 -10 -13 -42
l3 -43 -22 43 c-33 63 -53 56 -53 -18z"/>
<path d="M2097 3003 c-3 -5 -2 -15 2 -22 7 -10 10 -10 16 -1 4 6 3 16 -3 22
-5 5 -12 6 -15 1z"/>
<path d="M2180 2978 c0 -9 5 -20 10 -23 13 -8 13 5 0 25 -8 13 -10 13 -10 -2z"/>
<path d="M2150 2960 c0 -5 -7 -7 -15 -4 -10 4 -15 0 -15 -11 0 -9 -4 -14 -9
-10 -12 7 -24 -12 -17 -24 8 -13 56 11 56 27 0 7 5 10 10 7 6 -3 10 1 10 9 0
9 -4 16 -10 16 -5 0 -10 -4 -10 -10z"/>
<path d="M2480 2750 c-38 -38 -27 -61 50 -113 43 -28 50 -54 18 -66 -27 -10
-58 3 -58 25 0 9 -7 14 -17 12 -20 -4 -19 -48 1 -60 23 -15 83 -8 110 13 48
38 32 74 -54 121 -39 22 -37 52 3 56 22 3 30 -1 34 -17 3 -12 12 -21 19 -21
20 0 18 56 -2 64 -33 13 -84 6 -104 -14z"/>
<path d="M2640 2760 c0 -5 5 -10 10 -10 6 0 10 -38 10 -95 0 -57 -4 -95 -10
-95 -5 0 -10 -4 -10 -10 0 -5 18 -10 40 -10 22 0 40 5 40 10 0 6 -4 10 -10 10
-6 0 -10 36 -10 89 0 50 5 93 10 96 22 13 8 25 -30 25 -22 0 -40 -4 -40 -10z"/>
<path d="M2782 2754 c-44 -30 -28 -69 48 -118 47 -29 47 -60 2 -64 -27 -3 -35
1 -39 17 -3 12 -12 21 -19 21 -20 0 -18 -56 2 -64 32 -12 82 -5 108 15 42 33
32 66 -29 107 -57 37 -66 65 -22 70 22 3 30 -1 34 -17 8 -32 33 -26 33 8 0 21
-6 30 -22 35 -39 10 -73 7 -96 -10z"/>
<path d="M2930 2740 c0 -20 5 -30 15 -30 8 0 15 7 15 15 0 9 9 15 25 15 25 0
25 -1 25 -90 0 -53 -4 -90 -10 -90 -5 0 -10 -4 -10 -10 0 -5 18 -10 40 -10 38
0 52 12 30 25 -5 3 -10 44 -10 91 0 83 0 84 25 84 14 0 28 -7 31 -15 4 -8 12
-15 19 -15 10 0 12 16 6 53 0 4 -46 7 -101 7 l-100 0 0 -30z"/>
<path d="M3160 2760 c0 -5 5 -10 10 -10 6 0 10 -38 10 -95 0 -57 -4 -95 -10
-95 -5 0 -10 -5 -10 -10 0 -7 32 -10 88 -8 85 3 87 3 87 28 0 16 -6 26 -17 28
-11 2 -18 -3 -18 -12 0 -12 -10 -16 -40 -16 -39 0 -40 1 -40 35 0 32 2 35 30
35 17 0 30 -4 30 -10 0 -5 7 -10 15 -10 10 0 15 11 15 35 0 24 -5 35 -15 35
-8 0 -15 -4 -15 -10 0 -5 -13 -10 -30 -10 -28 0 -30 3 -30 35 0 34 1 35 40 35
29 0 40 -4 40 -15 0 -8 7 -15 15 -15 10 0 15 10 15 30 l0 30 -85 0 c-50 0 -85
-4 -85 -10z"/>
<path d="M3360 2761 c0 -5 6 -11 14 -14 17 -7 15 -179 -3 -185 -26 -9 -8 -22
29 -22 22 0 40 5 40 10 0 6 -4 10 -10 10 -6 0 -10 34 -9 83 l1 82 29 -92 c39
-122 55 -124 88 -10 35 119 40 123 41 28 0 -68 -3 -86 -17 -97 -16 -12 -12
-13 30 -14 42 0 64 13 36 22 -15 5 -15 181 0 186 27 9 7 22 -33 22 l-43 0 -24
-80 c-12 -44 -26 -80 -29 -80 -3 0 -17 36 -29 80 l-24 80 -43 0 c-24 0 -44 -4
-44 -9z"/>
<path d="M3745 2758 c-39 -111 -68 -185 -76 -192 -17 -18 -9 -26 26 -26 36 0
43 8 25 26 -23 23 1 44 47 44 l46 0 -6 -35 -6 -35 40 0 c42 0 46 4 26 24 -7 7
-28 57 -46 110 -26 76 -37 96 -52 96 -11 0 -22 -6 -24 -12z m45 -105 c0 -8
-12 -13 -30 -13 l-30 0 15 36 c8 20 15 39 16 43 1 10 28 -53 29 -66z"/>
<path d="M3920 2750 c-11 -11 -20 -26 -20 -33 0 -23 31 -57 71 -78 31 -15 40
-25 37 -42 -4 -32 -67 -38 -75 -8 -8 32 -33 26 -33 -8 0 -33 14 -41 71 -41 26
0 46 7 59 20 40 40 18 86 -57 124 -36 18 -42 40 -15 55 21 11 52 -3 52 -24 0
-8 7 -15 15 -15 10 0 15 10 15 29 0 21 -6 30 -22 35 -43 11 -78 6 -98 -14z"/>
<path d="M2206 2723 c-11 -11 -7 -21 12 -26 9 -2 25 -8 35 -12 10 -4 17 -3 17
4 0 13 -55 43 -64 34z"/>
<path d="M838 2713 c6 -2 9 -10 6 -15 -4 -7 -2 -8 5 -4 13 9 5 26 -12 25 -9 0
-8 -2 1 -6z"/>
<path d="M866 2693 c-6 -14 -5 -15 5 -6 7 7 10 15 7 18 -3 3 -9 -2 -12 -12z"/>
<path d="M801 2674 c0 -11 3 -14 6 -6 3 7 2 16 -1 19 -3 4 -6 -2 -5 -13z"/>
<path d="M886 2673 c-6 -14 -5 -15 5 -6 7 7 10 15 7 18 -3 3 -9 -2 -12 -12z"/>
<path d="M2192 2658 c-17 -17 -15 -23 15 -37 16 -7 30 -8 36 -2 6 6 1 12 -13
16 -13 4 -19 12 -16 21 7 17 -6 18 -22 2z"/>
<path d="M836 2647 c3 -10 9 -15 12 -12 3 3 0 11 -7 18 -10 9 -11 8 -5 -6z"/>
<path d="M770 2624 c0 -8 5 -12 10 -9 6 4 8 11 5 16 -9 14 -15 11 -15 -7z"/>
<path d="M860 2627 c0 -8 7 -17 15 -21 8 -3 15 -2 15 3 0 5 -7 14 -15 21 -12
10 -15 10 -15 -3z"/>
<path d="M800 2624 c0 -17 17 -36 24 -26 3 5 -1 15 -9 22 -8 7 -15 9 -15 4z"/>
<path d="M2083 2407 c3 -9 -2 -17 -14 -20 -13 -4 -17 -10 -13 -22 8 -19 39
-16 39 5 0 8 6 17 12 20 9 4 6 10 -8 19 -19 11 -21 11 -16 -2z m2 -37 c3 -5 1
-10 -4 -10 -6 0 -11 5 -11 10 0 6 2 10 4 10 3 0 8 -4 11 -10z"/>
<path d="M2160 2360 c6 -11 15 -20 20 -20 17 0 11 15 -11 28 -19 12 -19 11 -9
-8z"/>
<path d="M2472 2337 c-28 -29 -28 -67 -2 -95 23 -24 69 -29 88 -10 19 19 14
30 -9 17 -33 -17 -69 3 -69 39 0 15 5 33 12 40 16 16 55 15 61 0 2 -7 8 -10
12 -6 4 4 5 14 2 23 -10 24 -70 19 -95 -8z"/>
<path d="M2615 2335 c-30 -30 -31 -54 -4 -89 40 -51 119 -23 121 43 2 65 -70
93 -117 46z m85 -16 c26 -47 -26 -101 -65 -69 -18 15 -20 61 -3 78 19 19 56
14 68 -9z"/>
<path d="M2768 2305 c3 -35 0 -60 -8 -70 -10 -13 -9 -15 12 -15 24 0 25 2 22
58 l-3 57 18 -55 c10 -30 24 -55 32 -55 7 0 21 24 31 55 l18 55 -3 -58 c-2
-53 -1 -57 21 -57 12 0 22 5 22 10 0 6 -4 10 -9 10 -11 0 -9 90 3 108 6 10 1
13 -20 10 -23 -2 -30 -11 -44 -53 l-17 -50 -17 53 c-14 42 -22 52 -40 52 -21
0 -22 -3 -18 -55z"/>
<path d="M2955 2290 c0 -64 2 -70 21 -70 17 0 20 5 16 30 -4 25 -1 30 16 30
21 0 52 24 52 40 0 20 -34 40 -68 40 l-37 0 0 -70z m75 30 c0 -13 -7 -20 -20
-20 -13 0 -20 7 -20 20 0 13 7 20 20 20 13 0 20 -7 20 -20z"/>
<path d="M3078 2348 c7 -7 12 -33 12 -60 0 -50 16 -68 57 -68 36 0 51 23 55
83 4 48 2 57 -12 57 -14 0 -16 -9 -12 -55 4 -46 2 -56 -13 -61 -29 -12 -50 9
-50 52 -1 21 3 45 8 52 7 9 1 12 -24 12 -26 0 -30 -3 -21 -12z"/>
<path d="M3230 2340 c0 -11 5 -20 10 -20 6 0 10 5 10 10 0 6 7 10 16 10 13 0
15 -10 12 -60 -3 -55 -1 -60 18 -60 19 0 20 5 16 60 -4 50 -2 60 12 60 9 0 16
-4 16 -10 0 -5 5 -10 10 -10 6 0 10 9 10 20 0 18 -7 20 -65 20 -58 0 -65 -2
-65 -20z"/>
<path d="M3416 2334 c-4 -15 -16 -46 -27 -68 -10 -22 -19 -41 -19 -43 0 -2 12
-3 26 -3 22 0 24 2 14 15 -10 12 -9 16 3 21 26 10 52 0 49 -19 -2 -12 4 -17
23 -17 21 0 24 3 15 18 -6 9 -19 40 -29 67 -22 57 -45 70 -55 29z m34 -41 c0
-7 -7 -13 -16 -13 -11 0 -14 5 -10 16 3 9 6 21 6 27 0 16 20 -14 20 -30z"/>
<path d="M3552 2343 c-64 -54 -6 -147 72 -117 27 10 18 24 -12 18 -48 -10 -84
50 -50 84 15 15 55 16 60 0 2 -6 10 -8 17 -4 9 6 9 11 0 22 -16 19 -63 18 -87
-3z"/>
<path d="M3675 2290 c0 -67 1 -70 24 -70 18 0 21 3 12 13 -12 15 -11 107 2
107 4 0 7 5 7 10 0 6 -10 10 -22 10 -22 0 -23 -4 -23 -70z"/>
<path d="M3760 2340 c-28 -28 -27 -84 2 -104 50 -35 118 0 118 60 0 33 -34 64
-70 64 -17 0 -39 -9 -50 -20z m78 -12 c7 -7 12 -24 12 -38 0 -32 -17 -50 -46
-50 -28 0 -35 11 -36 51 -1 43 41 66 70 37z"/>
<path d="M3905 2290 c0 -65 2 -70 22 -70 20 0 21 3 12 35 -6 20 -6 42 -1 51 7
12 12 7 27 -25 36 -81 63 -78 59 7 -1 26 3 53 9 60 7 9 3 12 -16 12 -23 0 -24
-2 -20 -47 l4 -48 -26 48 c-19 34 -31 47 -48 47 -21 0 -22 -4 -22 -70z"/>
<path d="M4086 2308 c-10 -29 -23 -57 -27 -62 -16 -17 -10 -26 17 -26 22 0 24
2 14 15 -10 12 -9 16 3 21 26 10 52 0 49 -19 -2 -12 4 -17 23 -17 21 0 24 3
15 18 -6 9 -19 40 -29 67 -25 67 -42 68 -65 3z m44 -14 c0 -8 -7 -14 -15 -14
-17 0 -18 2 -9 24 7 18 24 12 24 -10z"/>
<path d="M4207 2348 c11 -18 11 -101 0 -115 -7 -10 4 -13 47 -13 49 0 56 2 56
20 0 11 -4 20 -10 20 -5 0 -10 -4 -10 -10 0 -5 -11 -10 -25 -10 -23 0 -25 3
-25 48 0 26 5 53 12 60 9 9 5 12 -21 12 -23 0 -30 -3 -24 -12z"/>
<path d="M4328 2348 c16 -16 16 -100 0 -116 -9 -9 2 -12 50 -12 46 0 60 3 56
13 -3 8 -17 11 -39 9 -31 -4 -35 -1 -35 18 0 20 4 22 30 17 25 -5 30 -3 30 13
0 14 -6 18 -27 17 -20 -1 -28 3 -31 17 -4 17 0 18 32 13 27 -4 36 -2 36 9 0
10 -14 14 -57 14 -44 0 -54 -3 -45 -12z"/>
<path d="M4472 2348 c-21 -21 -13 -46 24 -67 19 -12 32 -26 29 -31 -8 -13 -45
-13 -45 0 0 6 -4 10 -10 10 -5 0 -10 -9 -10 -20 0 -16 7 -20 33 -20 64 0 77
46 22 79 -19 11 -35 25 -35 31 0 14 47 12 53 -2 2 -7 8 -10 12 -6 4 4 5 14 2
23 -8 18 -58 20 -75 3z"/>
<path d="M2120 2342 c0 -11 22 -32 33 -32 5 0 4 6 -2 13 -6 8 -8 17 -4 20 3 4
-1 7 -10 7 -9 0 -17 -4 -17 -8z"/>
<path d="M2090 2306 c0 -8 -7 -16 -15 -20 -19 -7 -19 -25 -1 -32 20 -8 60 31
53 50 -8 20 -37 21 -37 2z m-5 -36 c3 -5 1 -10 -4 -10 -6 0 -11 5 -11 10 0 6
2 10 4 10 3 0 8 -4 11 -10z"/>
<path d="M961 2284 c0 -11 3 -14 6 -6 3 7 2 16 -1 19 -3 4 -6 -2 -5 -13z"/>
<path d="M2135 2249 c-4 -6 -5 -12 -2 -15 2 -3 7 2 10 11 7 17 1 20 -8 4z"/>
<path d="M1146 2134 c-23 -23 -20 -30 4 -9 11 10 20 20 20 22 0 7 -9 2 -24
-13z"/>
<path d="M1830 2140 c-8 -5 -12 -11 -9 -14 3 -3 14 1 25 9 21 16 8 20 -16 5z"/>
<path d="M1870 2125 c-14 -16 -3 -20 19 -6 8 5 9 11 3 15 -5 3 -15 -1 -22 -9z"/>
<path d="M1154 2099 c-19 -22 -19 -22 3 -10 24 12 39 31 25 31 -5 0 -17 -10
-28 -21z"/>
<path d="M1215 2109 c-11 -17 1 -21 15 -4 8 9 8 15 2 15 -6 0 -14 -5 -17 -11z"/>
<path d="M1260 2091 c-8 -10 -25 -23 -37 -30 -13 -6 -23 -16 -23 -22 0 -6 4
-6 13 0 6 6 26 21 42 35 17 13 28 27 25 29 -3 3 -12 -2 -20 -12z"/>
<path d="M1825 2100 c-3 -5 -2 -10 4 -10 5 0 13 5 16 10 3 6 2 10 -4 10 -5 0
-13 -4 -16 -10z"/>
<path d="M1884 2095 c-18 -13 -18 -14 4 -8 12 3 25 9 28 14 8 14 -10 11 -32
-6z"/>
<path d="M1163 2065 l-28 -25 27 11 c15 7 29 18 32 25 8 20 1 17 -31 -11z"/>
<path d="M1115 2060 c-3 -6 1 -7 9 -4 18 7 21 14 7 14 -6 0 -13 -4 -16 -10z"/>
<path d="M1887 2058 c-22 -14 -2 -15 33 -2 33 12 33 12 7 11 -15 -1 -33 -5
-40 -9z"/>
<path d="M1830 2040 c-8 -5 -10 -10 -5 -10 6 0 17 5 25 10 8 5 11 10 5 10 -5
0 -17 -5 -25 -10z"/>
<path d="M1873 2023 c-13 -2 -23 -8 -23 -12 0 -5 11 -6 25 -3 14 2 25 8 25 13
0 5 -1 8 -2 8 -2 -1 -13 -4 -25 -6z"/>
<path d="M1200 2005 c-14 -16 -10 -18 14 -9 9 3 16 10 16 15 0 14 -16 11 -30
-6z"/>
<path d="M1471 1983 c-1 -7 -8 -10 -18 -6 -12 5 -10 0 6 -16 16 -16 26 -20 35
-12 7 6 16 8 19 5 3 -4 14 -3 24 1 10 4 28 7 41 6 14 -2 22 3 22 13 0 19 -16
21 -23 4 -4 -10 -6 -10 -6 0 -1 19 -39 14 -44 -5 -4 -17 -5 -17 -6 0 0 9 -8
17 -16 17 -8 0 -15 -8 -16 -17 0 -15 -2 -15 -9 2 -5 11 -9 15 -9 8z"/>
</g>
</svg>
